<?xml version="1.0" encoding="utf-8"?>
<!-- Generator: Adobe Illustrator 19.1.0, SVG Export Plug-In . SVG Version: 6.00 Build 0)  -->
<svg version="1.1" id="Layer_1" xmlns="http://www.w3.org/2000/svg" xmlns:xlink="http://www.w3.org/1999/xlink" x="0px" y="0px"
	 viewBox="0 0 30 30" style="enable-background:new 0 0 30 30;" xml:space="preserve">
<style type="text/css">
	.st1{fill:#3B3B3B;}
</style>
<g>
	<path class="st1" d="M23.5,16.8v6.3h-3.6v-5.9c0-1.5-0.5-2.5-1.8-2.5c-1,0-1.6,0.7-1.9,1.3C16,16.3,16,16.7,16,17v6.1h-3.6
		c0,0,0-9.9,0-11H16v1.6c0,0,0,0,0,0h0v0c0.5-0.7,1.3-1.8,3.3-1.8C21.7,11.9,23.5,13.5,23.5,16.8L23.5,16.8z M8.6,6.9
		c-1.2,0-2.1,0.8-2.1,1.9c0,1.1,0.8,1.9,2,1.9h0c1.3,0,2.1-0.8,2.1-1.9C10.6,7.7,9.8,6.9,8.6,6.9L8.6,6.9z M6.7,23.1h3.6v-11H6.7
		V23.1z M6.7,23.1"/>
</g>
</svg>
