<?xml version="1.0" encoding="utf-8"?>
<!-- Generator: Adobe Illustrator 19.1.0, SVG Export Plug-In . SVG Version: 6.00 Build 0)  -->
<svg version="1.1" id="Layer_1" xmlns="http://www.w3.org/2000/svg" xmlns:xlink="http://www.w3.org/1999/xlink" x="0px" y="0px"
	 viewBox="0 0 30 30" style="enable-background:new 0 0 30 30;" xml:space="preserve">
<style type="text/css">
	.st1{fill-rule:evenodd;clip-rule:evenodd;fill:#3B3B3B;}
</style>
<g>
	<path class="st1" d="M8.7,6.5h12.6c1.2,0,2.2,0.9,2.2,2.2v12.6c0,1.3-1,2.2-2.2,2.2H8.7c-1.2,0-2.2-0.9-2.2-2.2V8.7
		C6.5,7.4,7.5,6.5,8.7,6.5L8.7,6.5z M18.9,8.4c-0.4,0-0.8,0.3-0.8,0.8V11c0,0.4,0.3,0.8,0.8,0.8h1.9c0.4,0,0.8-0.3,0.8-0.8V9.2
		c0-0.4-0.3-0.8-0.8-0.8H18.9z M21.6,13.7h-1.5c0.1,0.5,0.2,1,0.2,1.5c0,2.8-2.4,5.1-5.3,5.1c-2.9,0-5.3-2.3-5.3-5.1
		c0-0.5,0.1-1,0.2-1.5H8.4v7.2c0,0.4,0.3,0.7,0.7,0.7h11.8c0.4,0,0.7-0.3,0.7-0.7V13.7z M15,11.7c-1.9,0-3.4,1.5-3.4,3.3
		s1.5,3.3,3.4,3.3c1.9,0,3.4-1.5,3.4-3.3S16.9,11.7,15,11.7L15,11.7z M15,11.7"/>
</g>
</svg>
