<?xml version="1.0" encoding="utf-8"?>
<!-- Generator: Adobe Illustrator 19.1.0, SVG Export Plug-In . SVG Version: 6.00 Build 0)  -->
<svg version="1.1" id="Layer_1" xmlns="http://www.w3.org/2000/svg" xmlns:xlink="http://www.w3.org/1999/xlink" x="0px" y="0px"
	 viewBox="0 0 30 30" style="enable-background:new 0 0 30 30;" xml:space="preserve">
<style type="text/css">
	.st1{fill:#3B3B3B;}
</style>
<g>
	<path class="st1" d="M23.1,10c-0.6,0.3-1.2,0.4-1.9,0.5c0.7-0.4,1.2-1.1,1.5-1.8C22,9,21.3,9.3,20.6,9.4c-0.6-0.6-1.5-1.1-2.4-1.1
		c-1.8,0-3.3,1.5-3.3,3.3c0,0.3,0,0.5,0.1,0.8C12.1,12.3,9.6,11,8,9c-0.3,0.5-0.5,1.1-0.5,1.7c0,1.2,0.6,2.2,1.5,2.8
		c-0.5,0-1.1-0.2-1.5-0.4v0c0,1.6,1.2,3,2.7,3.3c-0.3,0.1-0.6,0.1-0.9,0.1c-0.2,0-0.4,0-0.6-0.1c0.4,1.3,1.7,2.3,3.1,2.3
		c-1.1,0.9-2.6,1.4-4.1,1.4c-0.3,0-0.5,0-0.8,0c1.5,0.9,3.2,1.5,5.1,1.5c6.1,0,9.5-5.1,9.5-9.5l0-0.4C22.1,11.2,22.7,10.6,23.1,10
		L23.1,10z M23.1,10"/>
</g>
</svg>
